<?xml version="1.0" encoding="utf-8"?>
<!-- Generator: Adobe Illustrator 27.5.0, SVG Export Plug-In . SVG Version: 6.00 Build 0)  -->
<svg version="1.1" xmlns="http://www.w3.org/2000/svg" xmlns:xlink="http://www.w3.org/1999/xlink" x="0px" y="0px"
	 viewBox="0 0 1920 1080" style="enable-background:new 0 0 1920 1080;" xml:space="preserve">
<g id="BACKGROUND">
	<rect y="-0.064" style="fill:#9FCCA8;" width="1920" height="1080"/>
</g>
<g id="OBJECTS">
	<g>
		<g>
			<circle style="fill:#D2E3D6;" cx="1056.33" cy="300.716" r="12.207"/>
			<circle style="fill:#D2E3D6;" cx="1056.33" cy="246.022" r="12.207"/>
		</g>
		<g>
			
				<ellipse transform="matrix(0.7652 -0.6437 0.6437 0.7652 65.9433 782.2578)" style="fill:#D2E3D6;" cx="1105.498" cy="300.716" rx="12.207" ry="12.207"/>
			
				<ellipse transform="matrix(0.2899 -0.9571 0.9571 0.2899 549.5875 1232.7415)" style="fill:#D2E3D6;" cx="1105.498" cy="246.022" rx="12.207" ry="12.207"/>
		</g>
		<g>
			
				<ellipse transform="matrix(0.7071 -0.7071 0.7071 0.7071 125.5553 904.55)" style="fill:#D2E3D6;" cx="1154.666" cy="300.716" rx="12.207" ry="12.207"/>
			
				<ellipse transform="matrix(0.231 -0.973 0.973 0.231 648.6162 1312.6489)" style="fill:#D2E3D6;" cx="1154.666" cy="246.022" rx="12.207" ry="12.207"/>
		</g>
		<g>
			
				<ellipse transform="matrix(0.9051 -0.4253 0.4253 0.9051 -13.5988 540.5162)" style="fill:#D2E3D6;" cx="1203.834" cy="300.716" rx="12.207" ry="12.207"/>
			
				<ellipse transform="matrix(0.1715 -0.9852 0.9852 0.1715 754.958 1389.8105)" style="fill:#D2E3D6;" cx="1203.834" cy="246.022" rx="12.207" ry="12.207"/>
		</g>
	</g>
	<g>
		<g>
			
				<ellipse transform="matrix(0.1602 -0.9871 0.9871 0.1602 1049.5061 1944.3684)" style="fill:#5D9A8D;" cx="1667.418" cy="355.411" rx="12.207" ry="12.207"/>
			
				<ellipse transform="matrix(0.7071 -0.7071 0.7071 0.7071 275.7369 1267.1205)" style="fill:#5D9A8D;" cx="1667.418" cy="300.716" rx="12.207" ry="12.207"/>
		</g>
		<g>
			
				<ellipse transform="matrix(0.1602 -0.9871 0.9871 0.1602 1090.7982 1992.9014)" style="fill:#5D9A8D;" cx="1716.586" cy="355.411" rx="12.207" ry="12.207"/>
			
				<ellipse transform="matrix(0.7071 -0.7071 0.7071 0.7071 290.1379 1301.8875)" style="fill:#5D9A8D;" cx="1716.586" cy="300.716" rx="12.207" ry="12.207"/>
		</g>
		<g>
			
				<ellipse transform="matrix(0.1602 -0.9871 0.9871 0.1602 1132.0902 2041.4344)" style="fill:#5D9A8D;" cx="1765.754" cy="355.411" rx="12.207" ry="12.207"/>
			
				<ellipse transform="matrix(0.7071 -0.7071 0.7071 0.7071 304.5388 1336.6544)" style="fill:#5D9A8D;" cx="1765.754" cy="300.716" rx="12.207" ry="12.207"/>
		</g>
		<g>
			
				<ellipse transform="matrix(0.9239 -0.3827 0.3827 0.9239 2.143 721.5956)" style="fill:#5D9A8D;" cx="1814.922" cy="355.411" rx="12.207" ry="12.207"/>
			
				<ellipse transform="matrix(0.2298 -0.9732 0.9732 0.2298 1105.2651 1997.9962)" style="fill:#5D9A8D;" cx="1814.922" cy="300.716" rx="12.207" ry="12.207"/>
		</g>
	</g>
	<rect y="925.659" style="fill:#487C72;" width="1920" height="154.406"/>
	<polygon style="opacity:0.5;fill:#27685B;" points="1920,1042.341 1537.252,1042.341 1525.451,925.659 1920,925.659 	"/>
	<g>
		<g>
			<path style="fill:#FFFFFF;" d="M295.395,986.932c0-5.197,4.213-9.41,9.41-9.41c5.197,0,9.41,4.213,9.41,9.41
				c0,5.197-4.213,9.41-9.41,9.41C299.607,996.342,295.395,992.129,295.395,986.932z"/>
			<path style="fill:#FFFFFF;" d="M238.564,986.932c0-5.197,4.213-9.41,9.41-9.41c5.197,0,9.41,4.213,9.41,9.41
				c0,5.197-4.213,9.41-9.41,9.41C242.777,996.342,238.564,992.129,238.564,986.932z"/>
			<path style="fill:#FFFFFF;" d="M181.735,986.932c0-5.197,4.213-9.41,9.41-9.41c5.197,0,9.41,4.213,9.41,9.41
				c0,5.197-4.213,9.41-9.41,9.41C185.947,996.342,181.735,992.129,181.735,986.932z"/>
			<path style="fill:#FFFFFF;" d="M124.904,986.932c0-5.197,4.213-9.41,9.41-9.41c5.197,0,9.41,4.213,9.41,9.41
				c0,5.197-4.213,9.41-9.41,9.41C129.117,996.342,124.904,992.129,124.904,986.932z"/>
		</g>
	</g>
	<g>
		<g>
			
				<rect x="1137.091" y="298.608" transform="matrix(-1 -1.224647e-16 1.224647e-16 -1 2297.416 896.0135)" style="fill:#D2E3D6;" width="23.234" height="298.797"/>
			<polygon style="fill:#5D9A8D;" points="1160.325,338.747 1137.091,353.156 1137.091,325.563 			"/>
			<g>
				
					<rect x="1198.563" y="274.309" transform="matrix(-0.578 0.816 -0.816 -0.578 2196.8345 -432.2678)" style="fill:#FFFFFF;" width="23.234" height="155.096"/>
				<g>
					<g>
						<g>
							
								<ellipse transform="matrix(0.578 -0.816 0.816 0.578 216.236 1188.0337)" style="fill:#D2E3D6;" cx="1256.869" cy="384.931" rx="73.262" ry="44.247"/>
							
								<rect x="1190.569" y="379.922" transform="matrix(-0.578 0.816 -0.816 -0.578 2312.5129 -416.0703)" style="fill:#D2E3D6;" width="146.523" height="19.88"/>
							<g>
								
									<ellipse transform="matrix(0.578 -0.816 0.816 0.578 213.863 1204.9857)" style="fill:#FFFFFF;" cx="1272.074" cy="395.701" rx="73.262" ry="44.247"/>
								
									<ellipse transform="matrix(0.578 -0.816 0.816 0.578 213.8637 1204.9867)" style="fill:#F4D07D;" cx="1272.074" cy="395.701" rx="52.208" ry="27.302"/>
								<path style="fill:#F7AA23;" d="M1279.906,401.25c6.906-9.749,8.998-20.137,4.673-23.201s-13.431,2.355-20.337,12.104
									c-6.906,9.749-8.998,20.137-4.672,23.201C1263.895,416.418,1273,410.999,1279.906,401.25z"/>
							</g>
						</g>
					</g>
					
						<ellipse transform="matrix(0.0277 -0.9996 0.9996 0.0277 810.5089 1459.7062)" style="fill:#6BB7A9;" cx="1155.622" cy="313.208" rx="25.537" ry="25.537"/>
				</g>
			</g>
		</g>
		<g>
			<path style="fill:#5D9A8D;" d="M1465.281,392.682l110.963,10.928l28.437-35.112c16.178-19.976,1.961-49.784-23.744-49.784h-3.1
				h-37.245c-9.744,0-18.968,4.399-25.101,11.971L1465.281,392.682z"/>
			<g>
				<g>
					<g>
						
							<rect x="1160.271" y="544.297" transform="matrix(-1 -1.224647e-16 1.224647e-16 -1 2354.8318 1238.8586)" style="fill:#FFFFFF;" width="34.29" height="150.264"/>
						
							<rect x="1137.09" y="582.049" transform="matrix(-1 -1.224647e-16 1.224647e-16 -1 2297.3608 1276.6102)" style="fill:#D2E3D6;" width="23.181" height="112.513"/>
					</g>
					<g>
						<path style="fill:#F7AA23;" d="M992.657,582.049h215.332v-37.752h-177.581C1009.559,544.297,992.657,561.199,992.657,582.049
							L992.657,582.049z"/>
						<path style="fill:#F4D07D;" d="M1029.049,582.049h215.332v-37.752H1066.8C1045.951,544.297,1029.049,561.199,1029.049,582.049
							L1029.049,582.049z"/>
					</g>
				</g>
				<g>
					<polygon style="fill:#D2E3D6;" points="1137.091,582.053 1137.091,602.613 1160.325,594.298 1194.56,582.053 					"/>
					<polygon style="fill:#5D9A8D;" points="1137.091,582.053 1137.091,602.613 1160.325,594.298 1160.325,582.053 					"/>
				</g>
			</g>
			<path style="fill:#5D9A8D;" d="M1240.247,649.604h197.106l162.176-200.056l-5.126-26.227c-1.763-9.018-6.192-17.4-13.051-23.515
				c-3.306-2.947-7.076-5.376-11.224-7.135c-3.505-1.487-7.217-2.515-11.065-3.013c-1.894-0.245-3.813-0.37-5.746-0.37h-102.095
				L1240.247,649.604z"/>
			<path style="fill:#6BB7A9;" d="M1194.452,649.604h197.106l180.177-222.317c12.354-15.244,1.506-38-18.116-38h-121.218
				c-17.063,0-33.215,7.7-43.958,20.956L1194.452,649.604z"/>
			<path style="fill:#6BB7A9;" d="M1431.312,392.682h119.813l27.569-34.04c12.975-16.021,1.573-39.928-19.043-39.928h-41.34
				c-17.137,0-33.358,7.737-44.144,21.054L1431.312,392.682z"/>
			<polygon style="fill:#5D9A8D;" points="962.985,694.561 1401.517,694.561 1437.353,649.604 962.985,649.604 			"/>
			<path style="fill:#487C72;" d="M838.001,649.602c-14.946,0-27.062,12.116-27.062,27.062v13.416c0,1.591,0.334,3.115,0.949,4.478
				h203.047v-44.957H838.001z"/>
			<g>
				<path style="fill:#FFFFFF;" d="M999.133,925.659h386.584V772.736c0-15.333-12.43-27.763-27.763-27.763H1138.86L999.133,925.659z
					"/>
				<polygon style="fill:#D2E3D6;" points="818.078,925.659 999.133,925.659 1138.86,744.973 957.805,744.973 				"/>
			</g>
			<g>
				
					<rect x="1137.541" y="701.246" transform="matrix(-1 -1.224647e-16 1.224647e-16 -1 2497.5054 1446.2186)" style="fill:#F4D07D;" width="222.423" height="43.727"/>
				
					<rect x="957.815" y="701.246" transform="matrix(-1 -1.224647e-16 1.224647e-16 -1 2095.356 1446.2186)" style="fill:#F7AA23;" width="179.727" height="43.727"/>
			</g>
			<g>
				<g>
					<g>
						
							<rect x="1325.674" y="544.297" transform="matrix(-1 -1.224647e-16 1.224647e-16 -1 2685.6382 1289.2703)" style="fill:#FFFFFF;" width="34.29" height="200.676"/>
						
							<rect x="1302.493" y="594.714" transform="matrix(-1 -1.224647e-16 1.224647e-16 -1 2628.1672 1339.687)" style="fill:#D2E3D6;" width="23.181" height="150.259"/>
					</g>
					<g>
						<path style="fill:#F7AA23;" d="M1158.06,582.049h215.333v-37.752h-177.581C1174.963,544.297,1158.06,561.199,1158.06,582.049
							L1158.06,582.049z"/>
						<path style="fill:#F4D07D;" d="M1194.452,582.049h215.332v-37.752h-177.581
							C1211.354,544.297,1194.452,561.199,1194.452,582.049L1194.452,582.049z"/>
					</g>
				</g>
				<g>
					<polygon style="fill:#D2E3D6;" points="1302.495,582.053 1302.495,602.613 1325.728,594.298 1359.964,582.053 					"/>
					<polygon style="fill:#5D9A8D;" points="1302.495,582.053 1302.495,602.613 1325.728,594.298 1325.728,582.053 					"/>
				</g>
			</g>
			<g>
				<path style="fill:#FFFFFF;" d="M1359.964,701.246h44.733l194.934-240.226c4.694-5.785,3.942-14.254-1.699-19.121l0,0
					l-199.596,245.979h-38.373V701.246z"/>
			</g>
			
				<rect x="1014.933" y="687.333" transform="matrix(-1 -1.224647e-16 1.224647e-16 -1 2317.4275 1388.5789)" style="fill:#FFFFFF;" width="287.561" height="13.912"/>
			<path style="fill:#D2E3D6;" d="M810.939,687.339v2.74c0,1.591,0.334,3.115,0.949,4.478c1.711,3.93,5.641,6.684,10.213,6.684
				h192.834v-13.903H810.939z"/>
		</g>
		<g>
			<polygon style="fill:#D2E3D6;" points="867.721,861.462 1095.579,800.41 1302.489,744.973 957.821,744.973 			"/>
			<polygon style="fill:#5D9A8D;" points="867.721,861.462 1095.579,800.41 1137.541,744.973 957.821,744.973 			"/>
		</g>
	</g>
	<g>
		<g>
			<g>
				<g>
					<rect x="1525.436" y="685.535" style="fill:#5D9A8D;" width="203.425" height="290.887"/>
					<rect x="1728.86" y="685.535" style="fill:#27685B;" width="78.184" height="290.887"/>
				</g>
				<g>
					<rect x="1555.435" y="715.535" style="fill:none;stroke:#FFFFFF;stroke-miterlimit:10;" width="143.425" height="230.888"/>
					<rect x="1570.153" y="802.098" style="fill:#F4D07D;" width="13.267" height="57.761"/>
				</g>
			</g>
			<g>
				<g>
					<rect x="1525.436" y="581.637" style="fill:#5D9A8D;" width="203.425" height="56.399"/>
					<rect x="1728.86" y="581.637" style="fill:#27685B;" width="78.184" height="56.399"/>
				</g>
				<g>
					<rect x="1525.436" y="631.337" style="fill:#5D9A8D;" width="21.899" height="61.177"/>
					<rect x="1547.334" y="638.036" style="fill:#27685B;" width="21.899" height="47.499"/>
				</g>
				<g>
					<rect x="1706.962" y="631.337" style="fill:#5D9A8D;" width="21.899" height="61.177"/>
					<rect x="1728.86" y="638.036" style="fill:#27685B;" width="21.899" height="47.499"/>
				</g>
				<g>
					<rect x="1785.145" y="631.337" style="fill:#27685B;" width="21.899" height="61.177"/>
				</g>
			</g>
			<g>
				<g>
					<circle style="fill:#1E3435;" cx="1537.252" cy="1020.256" r="22.085"/>
					<rect x="1525.451" y="976.422" style="fill:#234C4A;" width="23.602" height="43.833"/>
				</g>
				<g>
					<circle style="fill:#1E3435;" cx="1717.054" cy="1020.256" r="22.085"/>
					<rect x="1705.254" y="976.422" style="fill:#234C4A;" width="23.602" height="43.833"/>
				</g>
				<g>
					<circle style="fill:#1E3435;" cx="1795.233" cy="1020.256" r="22.085"/>
					<rect x="1783.432" y="976.422" style="fill:#234C4A;" width="23.602" height="43.833"/>
				</g>
			</g>
		</g>
		<g>
			<g>
				<g>
					<rect x="1617.244" y="547.243" style="fill:#FFFFFF;" width="86.997" height="34.394"/>
					<rect x="1670.684" y="547.243" style="fill:#D2E3D6;" width="33.557" height="34.394"/>
				</g>
				<rect x="1577.375" y="559.898" style="fill:#E89CBE;" width="39.869" height="21.739"/>
			</g>
			<g>
				<g>
					<polygon style="fill:#F4D07D;" points="1688.831,538.159 1694.177,581.637 1746.722,581.637 1752.068,538.159 					"/>
					<path style="fill:#F4D07D;" d="M1751.587,538.159h-62.274c-3.26,0-5.903-2.643-5.903-5.903l0,0c0-3.26,2.643-5.903,5.903-5.903
						h62.274c3.26,0,5.903,2.643,5.903,5.903l0,0C1757.49,535.516,1754.847,538.159,1751.587,538.159z"/>
				</g>
				<g>
					<g>
						<rect x="1716.551" y="484.735" style="fill:#FFFFFF;" width="12.31" height="41.617"/>
						<rect x="1728.86" y="495.487" style="fill:#E89CBE;" width="12.31" height="30.866"/>
					</g>
					<g>
						<rect x="1704.241" y="503.153" style="fill:#E89CBE;" width="12.31" height="23.199"/>
					</g>
				</g>
			</g>
		</g>
		<g>
			<g>
				<rect x="1569.233" y="659.735" style="fill:#F4D07D;" width="40.92" height="25.8"/>
				<rect x="1610.153" y="659.735" style="fill:#F7AA23;" width="26.859" height="25.8"/>
			</g>
			<g>
				<rect x="1634.673" y="651.721" style="fill:#FFFFFF;" width="36.011" height="33.813"/>
				<rect x="1670.684" y="651.721" style="fill:#D2E3D6;" width="36.277" height="33.813"/>
			</g>
		</g>
	</g>
	<g>
		<path style="fill:#FFFFFF;" d="M1401.763,280.516h100.61c2.974,0,5.384-2.41,5.384-5.384v-69.818c0-2.973-2.41-5.384-5.384-5.384
			h-100.61c-2.973,0-5.384,2.411-5.384,5.384v69.818C1396.379,278.105,1398.79,280.516,1401.763,280.516z"/>
		<path style="fill:#DB537D;" d="M1466.434,217.717c-11.102,0.001-14.367,8.164-14.367,8.164s-3.266-8.163-14.368-8.162
			c-11.102,0.001-22.53,17.635,14.371,48.326C1488.967,235.348,1477.536,217.716,1466.434,217.717z"/>
		<polygon style="fill:#FFFFFF;" points="1460.061,280.516 1452.068,296.502 1444.074,280.516 		"/>
	</g>

	<g>
		<g>
			
				<ellipse transform="matrix(0.231 -0.973 0.973 0.231 63.0034 1985.7219)" style="fill:#D2E3D6;" cx="1287.634" cy="953.006" rx="12.207" ry="12.207"/>
			
				<ellipse transform="matrix(0.1608 -0.987 0.987 0.1608 193.9684 2024.7483)" style="fill:#D2E3D6;" cx="1287.634" cy="898.311" rx="12.207" ry="12.207"/>
		</g>
		<g>
			
				<ellipse transform="matrix(0.2298 -0.9732 0.9732 0.2298 102.156 2035.0919)" style="fill:#D2E3D6;" cx="1336.801" cy="953.006" rx="12.207" ry="12.207"/>
			
				<ellipse transform="matrix(0.1602 -0.9871 0.9871 0.1602 235.958 2073.958)" style="fill:#D2E3D6;" cx="1336.801" cy="898.311" rx="12.207" ry="12.207"/>
		</g>
		<g>
			
				<ellipse transform="matrix(0.2298 -0.9732 0.9732 0.2298 140.0275 2082.9446)" style="fill:#D2E3D6;" cx="1385.969" cy="953.006" rx="12.207" ry="12.207"/>
			
				<ellipse transform="matrix(0.1602 -0.9871 0.9871 0.1602 277.2501 2122.4912)" style="fill:#D2E3D6;" cx="1385.969" cy="898.311" rx="12.207" ry="12.207"/>
		</g>
		<g>
			
				<ellipse transform="matrix(0.2298 -0.9732 0.9732 0.2298 177.8989 2130.7971)" style="fill:#D2E3D6;" cx="1435.137" cy="953.006" rx="12.207" ry="12.207"/>
			
				<ellipse transform="matrix(0.1602 -0.9871 0.9871 0.1602 318.5422 2171.0242)" style="fill:#D2E3D6;" cx="1435.137" cy="898.311" rx="12.207" ry="12.207"/>
		</g>
	</g>
	<g>
		<g>
			
				<ellipse transform="matrix(0.7071 -0.7071 0.7071 0.7071 -391.9294 732.2432)" style="fill:#5D9A8D;" cx="687.931" cy="839.222" rx="12.207" ry="12.207"/>
			
				<ellipse transform="matrix(0.9227 -0.3855 0.3855 0.9227 -249.2879 325.8848)" style="fill:#5D9A8D;" cx="687.931" cy="784.527" rx="12.207" ry="12.207"/>
		</g>
		<g>
			
				<ellipse transform="matrix(0.6398 -0.7685 0.7685 0.6398 -379.4757 868.7132)" style="fill:#5D9A8D;" cx="737.099" cy="839.222" rx="12.207" ry="12.207"/>
			
				<ellipse transform="matrix(0.8775 -0.4795 0.4795 0.8775 -285.9357 449.5675)" style="fill:#5D9A8D;" cx="737.099" cy="784.527" rx="12.207" ry="12.207"/>
		</g>
		<g>
			<circle style="fill:#5D9A8D;" cx="786.267" cy="839.222" r="12.207"/>
			<circle style="fill:#5D9A8D;" cx="786.267" cy="784.527" r="12.207"/>
		</g>
		<g>
			
				<ellipse transform="matrix(0.9943 -0.1069 0.1069 0.9943 -84.9579 94.1568)" style="fill:#5D9A8D;" cx="835.435" cy="839.222" rx="12.207" ry="12.207"/>
			
				<ellipse transform="matrix(0.1649 -0.9863 0.9863 0.1649 -76.1003 1479.1771)" style="fill:#5D9A8D;" cx="835.435" cy="784.527" rx="12.207" ry="12.207"/>
		</g>
	</g>
	<polygon style="fill:#FFFFFF;" points="1481.906,767.549 1465.202,767.549 1465.202,750.845 1447.357,750.845 1447.357,767.549 
		1430.653,767.549 1430.653,785.393 1447.357,785.393 1447.357,802.098 1465.202,802.098 1465.202,785.393 1481.906,785.393 	"/>
	<polygon style="fill:#FFFFFF;" points="1842.945,475.813 1826.24,475.813 1826.24,459.109 1808.396,459.109 1808.396,475.813 
		1791.692,475.813 1791.692,493.658 1808.396,493.658 1808.396,510.362 1826.24,510.362 1826.24,493.658 1842.945,493.658 	"/>
</g>
<g id="TEXTS">

	<text transform="matrix(1 0 0 1 119.2422 608.4785)">
	<tspan x="0" y="0" style="fill:#487C72; font-family:'Montserrat-Medium'; font-size:21px;">Tempat di mana senyum anda menjadi prioritas utama.</tspan>
	<tspan x="0" y="23" style="fill:#487C72; font-family:'Montserrat-Medium'; font-size:21px;">Kami menyediakan perawatan gigi terbaik dengan</tspan>
	<tspan x="0" y="46" style="fill:#487C72; font-family:'Montserrat-Medium'; font-size:21px;">perhatian penuh kepada kesehatan gigi Anda.</tspan>
	</text>
</g>
</svg>
