<?xml version="1.0" encoding="utf-8"?>
<!-- Generator: Adobe Illustrator 27.5.0, SVG Export Plug-In . SVG Version: 6.00 Build 0)  -->
<svg version="1.1" id="Layer_1" xmlns="http://www.w3.org/2000/svg" xmlns:xlink="http://www.w3.org/1999/xlink" x="0px" y="0px"
	 viewBox="0 0 5000 5000" style="enable-background:new 0 0 5000 5000;" xml:space="preserve">
<g>
	
		<ellipse transform="matrix(0.7071 -0.7071 0.7071 0.7071 -2146.249 2976.5725)" style="fill:#42B7B4;" cx="2519.916" cy="4079.038" rx="669.405" ry="669.406"/>
			<g>
				<path style="fill:#F899AD;" d="M3095.543,4205.131c-10.01-53.366-53.096-227.131-116.016-227.131h-233.163
					c-37.84,37-124.979,63.981-226.448,63.981c-101.468,0-188.607-26.981-226.447-63.981h-57.243h-179.428
					c-62.92,0-103.402,165.914-112.822,227.131c-9.418,61.219,23.284,113.869,86.204,113.869h179.428h163.542h69.125h110.304h460.47
					C3075.968,4319,3105.552,4258.495,3095.543,4205.131z"/>
			</g>
			<g>
				
					<ellipse transform="matrix(0.7071 -0.7071 0.7071 0.7071 190.519 2010.851)" style="fill:#42B7B4;" cx="2522.571" cy="775.449" rx="669.406" ry="669.406"/>
				<g>
					<g>
						<g>
							<g>
								<path style="fill:#F1F0F5;" d="M2422.813,460.543c10.857-17.61,33.496-35.254,48.351-40.906
									c14.854-5.642,37.283-6.472,50.066-1.856c12.792,4.618,36.663,18.289,53.323,30.56l59.149,43.512l68.636,26.107
									c19.349,7.349,43.775,19.994,54.603,28.242c10.814,8.24,22.265,27.528,25.583,43.07c3.302,15.546,0.748,44.133-8.157,62.805
									c-15.752,33.046-45.588,82.722-93.996,116.853c0,0-34.367,23.934-63.04,76.561c-20.967,38.486-80.843,113.478-119.988,140.013
									c-17.125,11.617-40.385-5.069-35.928-25.279c15.649-70.807,86.988-231.752,53.133-249.645
									c-33.369-18.733-129.925,128.474-180.956,180.002c-14.572,14.7-41.214,4.2-40.731-16.483
									c1.073-47.281,31.604-138.24,52.581-176.743c28.672-52.624,30.147-94.479,30.147-94.479
									C2378.029,543.699,2403.59,491.697,2422.813,460.543z"/>
							</g>
						</g>
					</g>
					<g>
						<path style="fill:none;" d="M2228.356,708.059c2.679-0.92,5.394-1.611,8.144-2.046
							C2233.961,705.767,2231.238,706.486,2228.356,708.059z"/>
						<path style="fill:#F899AD;" d="M2795.193,750.264c-57.131-27.644-263.542,265.384-302.244,276.442
							c-38.702,11.058-75.562-25.801-64.504-57.132c11.059-31.33,20.272-86.618-14.743-105.048
							c-35.016-18.43-93.991,84.775-138.222,84.775c-44.23,0-18.429-105.048,0-149.278c18.43-44.23,5.528-88.461-38.702-93.991
							c-0.09-0.013-0.186-0.011-0.278-0.02c-2.75,0.435-5.465,1.125-8.144,2.046c-32.73,17.866-85.563,146.006-115.199,223.814
							c-5.524,23.618-9.531,44.69-11.937,60.319c-11.886,77.257,29.383,143.808,108.789,143.808h629.409
							c79.404,0,116.741-76.46,104.109-143.808c-2.926-15.6-8.091-39.375-15.29-66.672
							C2888.888,825.838,2830.043,767.125,2795.193,750.264z"/>
					</g>
				</g>
			</g>
	<g>
		
			<ellipse transform="matrix(0.7071 -0.7071 0.7071 0.7071 682.3008 3198.1172)" style="fill:#42B7B4;" cx="4201.619" cy="775.449" rx="669.406" ry="669.406"/>
		<g>
			<g>
				<path style="fill:#F899AD;" d="M4582.846,1021.456C4568.451,944.696,4506.473,695,4415.975,695h-433.756
					c-90.502,0-148.729,238.402-162.276,326.456C3806.395,1109.508,3853.43,1185,3943.932,1185h520.256
					C4554.688,1185,4597.241,1098.214,4582.846,1021.456z"/>
				<g>
					<g>
						<g>
							<path style="fill:#F1F0F5;" d="M4413.34,582.563c-1.175-21.85-13.273-49.692-24.208-62.46
								c-10.944-12.756-31.353-24.876-45.563-27.058c-14.218-2.184-43.307-1.566-64.99,1.4l-76.956,10.483l-76.958-10.483
								c-21.688-2.967-50.774-3.584-65.002-1.4c-14.216,2.182-34.611,14.301-45.556,27.058
								c-10.935,12.768-23.029,40.61-24.206,62.46c-2.09,38.664,0.481,99.898,28.17,156.095c0,0,19.811,39.62,19.811,103.007
								c0,46.354,17.664,146.304,40.594,190.761c10.028,19.454,40.073,15.726,46.161-5.301
								c21.298-73.681,36.479-259.265,76.976-258.752c40.476-0.512,55.662,185.072,76.988,258.752
								c6.096,21.027,36.149,24.755,46.17,5.301c22.929-44.457,40.598-144.386,40.598-190.761
								c0-63.387,19.811-103.007,19.811-103.007C4412.855,682.461,4415.43,621.227,4413.34,582.563z"/>
						</g>
					</g>
				</g>
				<g>
					<path style="fill:#8ED4F4;" d="M4034.944,564.314c2.484-29.153,25.707-52.373,54.862-54.856
						c-29.306-2.494-52.613-25.944-54.896-55.306c-2.734,29.465-26.67,52.769-56.408,54.522l-0.522,0.522l0.114,0.113
						C4008.173,510.881,4032.401,534.502,4034.944,564.314z"/>
				</g>
				<g>
					<path style="fill:#8ED4F4;" d="M4193.763,657.904c2.485-29.152,25.71-52.373,54.862-54.856
						c-29.305-2.494-52.613-25.945-54.895-55.307c-2.734,29.465-26.668,52.77-56.408,54.523l-0.522,0.522l0.116,0.113
						C4166.993,604.473,4191.222,628.093,4193.763,657.904z"/>
				</g>
			</g>
			<g>
				<path style="fill:#8ED4F4;" d="M3983.401,462.041c1.883-22.099,19.487-39.701,41.586-41.583
					c-22.214-1.891-39.881-19.667-41.612-41.923c-2.072,22.334-20.215,40-42.759,41.33l-0.396,0.395l0.087,0.087
					C3963.107,421.538,3981.474,439.443,3983.401,462.041z"/>
			</g>
			<g>
				<path style="fill:#8ED4F4;" d="M4074.399,423.469c1.296-15.184,13.391-27.278,28.575-28.571
					c-15.264-1.299-27.404-13.513-28.592-28.806c-1.424,15.346-13.891,27.484-29.38,28.397l-0.271,0.272l0.061,0.06
					C4060.458,395.64,4073.077,407.942,4074.399,423.469z"/>
			</g>
		</g>
	</g>
	
		<ellipse transform="matrix(0.7071 -0.7071 0.7071 0.7071 -305.9156 812.3513)" style="fill:#42B7B4;" cx="827.637" cy="775.448" rx="669.406" ry="669.406"/>
	<path style="fill:#F899AD;" d="M1410.335,935.968C1397.704,868.62,1343.328,649,1263.923,649H970.298h-63.31h-163.13H613.363
		h-226.44c-79.404,0-130.494,209.711-142.38,286.968C232.656,1013.225,273.926,1080,353.331,1080h226.44h206.39h87.235H1012.6
		h293.625C1385.63,1080,1422.967,1003.315,1410.335,935.968z"/>
	<g>
		
			<ellipse transform="matrix(0.7071 -0.7071 0.7071 0.7071 -1473.9106 1296.1506)" style="fill:#42B7B4;" cx="827.637" cy="2427.243" rx="669.406" ry="669.407"/>
		<g>
			<path style="fill:#F899AD;" d="M1208.863,2610.455c-14.396-76.76-76.372-326.455-166.872-326.455H608.236
				c-90.501,0-148.73,238.401-162.276,326.455C432.411,2698.509,479.447,2774,569.95,2774h520.255
				C1180.704,2774,1223.259,2687.216,1208.863,2610.455z"/>
			<path style="fill:#EBEBED;" d="M1039.357,2171.721c-1.175-21.85-13.272-49.692-24.208-62.46
				c-10.945-12.756-31.354-24.876-45.564-27.057c-14.218-2.184-43.307-1.567-64.991,1.399l-76.955,10.483l-76.958-10.483
				c-21.688-2.967-50.776-3.583-65.002-1.399c-14.217,2.18-34.612,14.301-45.556,27.057c-4.324,5.049-8.829,12.463-12.769,20.926
				c6.15,2.705,12.08,6.497,11.449,10.915c-1.275,8.924,2.55,28.05,2.55,28.05s1.274,11.477-2.55,20.401s6.375,16.576,0,24.225
				c-6.375,7.65-17.851,12.751-19.125,17.852c-0.17,0.678-0.915,1.332-2.058,1.959c3.349,29.763,10.975,62.782,26.467,94.228
				c0,0,19.81,39.621,19.81,103.007c0,46.354,17.664,146.303,40.594,190.761c10.029,19.456,40.074,15.727,46.161-5.3
				c21.297-73.681,36.479-259.266,76.976-258.753c40.475-0.512,55.663,185.073,76.987,258.753
				c6.096,21.026,36.152,24.756,46.171,5.3c22.928-44.458,40.599-144.385,40.599-190.761c0-63.386,19.811-103.007,19.811-103.007
				C1038.873,2271.618,1041.447,2210.383,1039.357,2171.721z"/>
			<g>
				<path style="fill:#595853;" d="M638.804,2189.552c3.825-8.925,2.55-20.401,2.55-20.401s-3.825-19.126-2.55-28.05
					c0.631-4.417-5.299-8.209-11.449-10.915c-0.344,0.739-0.682,1.486-1.016,2.239c3.853,1.605,9.303,4.423,9.303,7.53
					c0,4.803,0.343,14.752,1.372,20.929c1.029,6.177,2.058,20.244-2.402,30.194c-4.46,9.95,6.862,13.038,3.774,18.186
					c-3.087,5.146-18.185,13.381-19.214,17.155c-0.294,1.077-1.068,2.008-2.016,2.798c0.145,1.448,0.299,2.905,0.464,4.37
					c1.143-0.628,1.888-1.282,2.058-1.959c1.275-5.1,12.75-10.201,19.125-17.852C645.18,2206.128,634.979,2198.477,638.804,2189.552
					z"/>
			</g>
			<path style="fill:#595853;" d="M739.131,2124.982c0,0,8.632-9.523,72.615,5.114c29.323,6.707,49.093-19.433,73.639-12.273
				c24.545,7.159,10.228,31.706,2.045,34.773C879.248,2155.666,691.062,2184.302,739.131,2124.982z"/>
			<path style="fill:#595853;" d="M911.894,2185.299c1.149-12.637,14.931-9.954,22.396-9.954c7.465,0,22.395,12.441,19.907,19.907
				c-2.488,7.465-22.396,14.929-22.396,14.929S909.407,2212.671,911.894,2185.299z"/>
		</g>
	</g>
	<g>
		
			<ellipse transform="matrix(0.7071 -0.7071 0.7071 0.7071 -986.7256 2498.4817)" style="fill:#42B7B4;" cx="2522.571" cy="2440.324" rx="669.406" ry="669.406"/>
		<g>
			<g>
				<path style="fill:#F899AD;" d="M3058.263,2668.173C3047.01,2608.17,2998.564,2413,2927.819,2413h-261.599h-56.403h-145.338
					h-116.261h-201.741c-70.744,0-116.261,186.343-126.851,255.173c-10.59,68.83,26.178,127.827,96.923,127.827h201.74h183.879
					h77.721h124.021h261.599C3036.252,2796,3069.516,2728.176,3058.263,2668.173z"/>
				<g>
					<g>
						<g>
							<g>
								<path style="fill:#F1F0F5;" d="M2571.055,2325.017c0.92-17.078,10.376-38.842,18.926-48.824
									c8.554-9.973,24.508-19.445,35.615-21.15c11.113-1.708,33.853-1.224,50.803,1.094l60.155,8.195l60.158-8.195
									c16.954-2.318,39.691-2.802,50.812-1.094c11.114,1.705,27.055,11.178,35.61,21.15c8.547,9.982,18.001,31.746,18.922,48.824
									c1.635,30.223-0.376,78.09-22.021,122.018c0,0-15.486,30.972-15.486,80.521c0,36.233-13.807,114.364-31.731,149.117
									c-7.839,15.205-31.323,12.293-36.082-4.144c-16.648-57.598-28.517-202.667-60.173-202.266
									c-31.639-0.401-43.512,144.668-60.18,202.266c-4.766,16.437-28.26,19.349-36.092,4.144
									c-17.924-34.753-31.735-112.866-31.735-149.117c0-49.549-15.486-80.521-15.486-80.521
									C2571.435,2403.106,2569.422,2355.24,2571.055,2325.017z"/>
							</g>
						</g>
					</g>
				</g>
				<g>
					<g>
						<g>
							<g>
								<path style="fill:#F1F0F5;" d="M2472.641,2325.017c-0.919-17.078-10.375-38.842-18.923-48.824
									c-8.555-9.973-24.509-19.445-35.616-21.15c-11.114-1.708-33.853-1.224-50.804,1.094l-60.154,8.195l-60.159-8.195
									c-16.953-2.318-39.691-2.802-50.811-1.094c-11.115,1.705-27.056,11.178-35.611,21.15
									c-8.547,9.982-18.001,31.746-18.922,48.824c-1.635,30.223,0.376,78.09,22.021,122.018c0,0,15.485,30.972,15.485,80.521
									c0,36.233,13.807,114.364,31.732,149.117c7.84,15.205,31.325,12.293,36.083-4.144
									c16.648-57.598,28.517-202.667,60.172-202.266c31.641-0.401,43.512,144.668,60.18,202.266
									c4.766,16.437,28.26,19.349,36.092,4.144c17.923-34.753,31.735-112.866,31.735-149.117
									c0-49.549,15.486-80.521,15.486-80.521C2472.262,2403.106,2474.274,2355.24,2472.641,2325.017z"/>
							</g>
						</g>
					</g>
				</g>
			</g>
			<path style="fill:#8ED4F4;" d="M1965.388,2202.399c2.856,3.471,5.556,7.021,8.208,10.596c2.646,3.578,5.224,7.19,7.761,10.823
				c1.28,1.812,2.504,3.65,3.759,5.474c1.258,1.822,2.482,3.66,3.694,5.505c2.459,3.672,4.844,7.382,7.213,11.101
				c2.402,3.701,4.662,7.475,7,11.21c1.17,1.867,2.271,3.767,3.41,5.649l3.39,5.66l6.61,11.407c1.105,1.9,2.148,3.83,3.226,5.743
				l3.209,5.753l-16.087-4.104c2.54-1.924,5.146-3.751,7.72-5.626l7.749-5.584c5.2-3.673,10.418-7.32,15.682-10.899
				c2.627-1.797,5.263-3.582,7.915-5.344c2.635-1.784,5.309-3.514,7.975-5.252l8.001-5.218l8.085-5.094l10.308-6.493l5.141,10.049
				c0.928,1.813,1.886,3.611,2.79,5.439l2.723,5.478l2.722,5.477l2.643,5.523l2.64,5.524l2.564,5.567l2.553,5.573l2.479,5.616
				c1.677,3.729,3.239,7.524,4.848,11.293l2.333,5.698c0.781,1.898,1.543,3.806,2.281,5.729c0.743,1.919,1.509,3.826,2.218,5.765
				c0.717,1.933,1.458,3.854,2.141,5.808c1.408,3.882,2.746,7.803,3.966,11.793c-2.801-3.091-5.484-6.25-8.098-9.448
				c-1.328-1.587-2.598-3.207-3.892-4.813c-1.301-1.603-2.547-3.237-3.814-4.857c-1.272-1.619-2.521-3.25-3.75-4.895l-3.7-4.921
				c-2.413-3.312-4.871-6.598-7.216-9.95l-3.554-5.004l-3.479-5.048l-3.468-5.053l-3.392-5.098l-3.39-5.099l-3.309-5.144
				l-3.309-5.144c-1.109-1.712-2.16-3.455-3.244-5.182l15.447,3.557l-7.657,5.717l-7.742,5.594
				c-2.581,1.865-5.156,3.737-7.767,5.558c-2.597,1.84-5.209,3.66-7.83,5.466c-5.231,3.628-10.508,7.188-15.803,10.723l-7.994,5.227
				c-2.674,1.73-5.315,3.506-8.023,5.184l-11.059,6.855l-5.027-10.96l-2.746-5.986c-0.909-2-1.848-3.983-2.729-5.995l-5.301-12.072
				l-2.564-6.078c-0.846-2.031-1.729-4.042-2.546-6.09c-1.631-4.091-3.342-8.143-4.909-12.269
				c-1.602-4.106-3.185-8.223-4.696-12.376c-0.773-2.067-1.533-4.142-2.26-6.233c-0.731-2.089-1.492-4.164-2.196-6.266
				c-1.434-4.193-2.825-8.406-4.148-12.655C1967.772,2211.029,1966.502,2206.754,1965.388,2202.399z"/>
			<path style="fill:#8ED4F4;" d="M3079.755,2202.399c-2.854,3.471-5.555,7.021-8.206,10.596c-2.646,3.578-5.225,7.19-7.762,10.823
				c-1.279,1.812-2.504,3.65-3.758,5.474c-1.258,1.822-2.483,3.66-3.695,5.505c-2.458,3.672-4.844,7.382-7.212,11.101
				c-2.403,3.701-4.663,7.475-7.001,11.21c-1.169,1.867-2.27,3.767-3.409,5.649l-3.39,5.66l-6.609,11.407
				c-1.104,1.9-2.148,3.83-3.225,5.743l-3.21,5.753l16.085-4.104c-2.539-1.924-5.145-3.751-7.719-5.626l-7.749-5.584
				c-5.2-3.673-10.419-7.32-15.682-10.899c-2.628-1.797-5.264-3.582-7.915-5.344c-2.636-1.784-5.309-3.514-7.976-5.252l-8-5.218
				l-8.086-5.094l-10.307-6.493l-5.141,10.049c-0.928,1.813-1.886,3.611-2.79,5.439l-2.722,5.478l-2.724,5.477l-2.641,5.523
				l-2.642,5.524l-2.563,5.567l-2.554,5.573l-2.479,5.616c-1.676,3.729-3.239,7.524-4.847,11.293l-2.334,5.698
				c-0.779,1.898-1.542,3.806-2.28,5.729c-0.742,1.919-1.508,3.826-2.218,5.765c-0.716,1.933-1.457,3.854-2.141,5.808
				c-1.407,3.882-2.746,7.803-3.967,11.793c2.802-3.091,5.483-6.25,8.097-9.448c1.327-1.587,2.599-3.207,3.893-4.813
				c1.301-1.603,2.546-3.237,3.814-4.857c1.271-1.619,2.521-3.25,3.749-4.895l3.702-4.921c2.413-3.312,4.87-6.598,7.215-9.95
				l3.554-5.004l3.478-5.048l3.469-5.053l3.393-5.098l3.39-5.099l3.309-5.144l3.31-5.144c1.107-1.712,2.16-3.455,3.242-5.182
				l-15.446,3.557l7.658,5.717l7.742,5.594c2.58,1.865,5.153,3.737,7.767,5.558c2.597,1.84,5.207,3.66,7.828,5.466
				c5.231,3.628,10.509,7.188,15.805,10.723l7.992,5.227c2.676,1.73,5.316,3.506,8.023,5.184l11.059,6.855l5.029-10.96l2.747-5.986
				c0.906-2,1.847-3.983,2.728-5.995l5.3-12.072l2.565-6.078c0.846-2.031,1.729-4.042,2.546-6.09
				c1.63-4.091,3.343-8.143,4.908-12.269c1.604-4.106,3.186-8.223,4.697-12.376c0.773-2.067,1.534-4.142,2.26-6.233
				c0.73-2.089,1.491-4.164,2.197-6.266c1.433-4.193,2.823-8.406,4.147-12.655
				C3077.372,2211.029,3078.643,2206.754,3079.755,2202.399z"/>
			<path style="fill:#8ED4F4;" d="M2528.771,2293.424c-0.436-4.474-1.038-8.892-1.689-13.295c-0.658-4.401-1.39-8.778-2.165-13.142
				c-0.376-2.187-0.811-4.352-1.212-6.528c-0.399-2.178-0.832-4.345-1.281-6.506c-0.858-4.335-1.795-8.646-2.75-12.95
				c-0.917-4.315-1.989-8.58-2.977-12.874c-0.492-2.147-1.058-4.271-1.585-6.407l-1.605-6.398l-3.391-12.741
				c-0.563-2.124-1.19-4.227-1.78-6.343l-1.8-6.336l-8.473,14.278c3.157-0.436,6.292-0.986,9.438-1.481l9.429-1.53
				c6.273-1.08,12.541-2.191,18.795-3.384c3.129-0.586,6.255-1.188,9.375-1.815c3.124-0.604,6.239-1.271,9.354-1.926l9.346-1.968
				l9.319-2.115l11.879-2.696l-3.471-10.743c-0.625-1.938-1.22-3.886-1.874-5.817l-1.947-5.798l-1.947-5.799l-2.037-5.772
				l-2.038-5.773l-2.125-5.75l-2.135-5.746l-2.219-5.724c-1.451-3.824-3.029-7.612-4.557-11.414l-2.381-5.679
				c-0.791-1.894-1.6-3.783-2.438-5.665c-0.831-1.882-1.639-3.771-2.507-5.644c-0.861-1.874-1.696-3.756-2.593-5.621
				c-1.751-3.741-3.578-7.46-5.535-11.144c0.205,4.167,0.543,8.298,0.955,12.407c0.184,2.061,0.43,4.104,0.651,6.155
				c0.212,2.053,0.488,4.088,0.737,6.131c0.245,2.045,0.517,4.082,0.809,6.112l0.864,6.097c0.636,4.049,1.222,8.111,1.933,12.137
				l1.027,6.053l1.109,6.028l1.121,6.025l1.205,6.003l1.207,6.002l1.298,5.977l1.297,5.978c0.428,1.995,0.917,3.971,1.372,5.956
				l8.408-13.437l-9.457,1.372l-9.43,1.521c-3.144,0.505-6.288,1.002-9.422,1.562c-3.138,0.534-6.271,1.094-9.402,1.671
				c-6.263,1.133-12.514,2.346-18.756,3.593l-9.35,1.956c-3.112,0.668-6.236,1.28-9.339,2.007l-12.666,2.973l4.193,11.305
				l2.292,6.175c0.772,2.055,1.509,4.122,2.31,6.168l4.789,12.283l2.484,6.113c0.839,2.035,1.636,4.081,2.506,6.105
				c1.74,4.048,3.395,8.123,5.204,12.148c1.771,4.037,3.563,8.067,5.431,12.073c0.916,2.008,1.845,4.012,2.81,6.006
				c0.961,1.993,1.889,3.999,2.877,5.983c1.952,3.977,3.948,7.94,6.016,11.882
				C2524.354,2285.636,2526.478,2289.558,2528.771,2293.424z"/>
		</g>
	</g>
	
	<g>
		<circle style="fill:#42B7B4;" cx="829.365" cy="4079.037" r="669.407"/>
		<g>
			<path style="fill:#F899AD;" d="M1210.592,4261.955c-14.396-76.761-76.373-325.955-166.873-325.955H609.964
				c-90.502,0-148.73,237.901-162.276,325.955C434.139,4350.007,481.174,4425,571.677,4425h520.255
				C1182.433,4425,1224.987,4338.714,1210.592,4261.955z"/>
			<g>
				<path style="fill:#C9C9C9;" d="M830,3979.837v402.978c4-2.733,117.24-69.118,130.543-104.027
					c13.584-35.646,39.314-269.014,39.314-269.014L830,3979.837z"/>
				<path style="fill:#D2D6D6;" d="M829.618,3979.808l-0.146,0.007l-0.09-0.007l-170.159,29.966c0,0,25.608,233.367,39.193,269.014
					c13.584,35.647,130.917,104.125,130.917,104.125l0.034-0.029l0.25,0.029c0,0-0.619-0.041,0.381-0.098v-402.978L829.618,3979.808
					z"/>
			</g>
			<g>
				<path style="fill:#F1F0F5;" d="M1012.923,3979.605c27.678-56.196,30.251-117.432,28.163-156.095
					c-1.176-21.851-13.274-49.692-24.208-62.46c-10.945-12.757-31.354-24.876-45.563-27.058c-14.218-2.184-43.307-1.566-64.991,1.4
					l-76.956,10.482l-76.958-10.482c-21.688-2.967-50.775-3.584-65.003-1.4c-14.215,2.182-34.611,14.301-45.555,27.058
					c-10.934,12.768-23.029,40.609-24.207,62.46c-2.089,38.663,0.482,99.898,28.171,156.095c0,0,3.84,7.688,8.139,21.693h350.831
					C1009.083,3987.293,1012.923,3979.605,1012.923,3979.605z"/>
			</g>
			<path style="fill:#F1F0F5;" d="M1013,4005.905c0-3.813-3.091-6.905-6.905-6.905h-355.19c-3.813,0-6.905,3.092-6.905,6.905v0.189
				c0,3.813,3.091,6.905,6.905,6.905h355.19c3.813,0,6.905-3.092,6.905-6.905V4005.905z"/>
			<path style="fill:#AFAFAF;" d="M1005.843,4085.974c-0.486,3.609-81.334-4.301-180.582-17.667
				c-99.246-13.369-179.307-27.131-178.82-30.741c0.486-3.608,81.336,4.302,180.581,17.67
				C926.269,4068.603,1006.33,4082.364,1005.843,4085.974z"/>
			<path style="fill:#AFAFAF;" d="M1005.843,4141.619c-0.486,3.611-81.334-4.3-180.582-17.666
				c-99.246-13.369-179.307-27.13-178.82-30.74c0.486-3.609,81.336,4.301,180.581,17.668
				C926.269,4124.248,1006.33,4138.01,1005.843,4141.619z"/>
			<path style="fill:#AFAFAF;" d="M996.923,4196.066c-0.47,3.494-77.313-3.973-171.633-16.677
				c-94.319-12.704-170.4-25.834-169.93-29.328c0.47-3.495,77.313,3.973,171.633,16.677
				C921.314,4179.441,997.394,4192.571,996.923,4196.066z"/>
			<path style="fill:#AFAFAF;" d="M990.983,4250.914c-0.422,3.127-74.565-4.278-165.604-16.542
				c-91.039-12.261-164.501-24.735-164.079-27.864c0.422-3.127,74.565,4.277,165.604,16.54
				C917.943,4235.311,991.404,4247.785,990.983,4250.914z"/>
			<path style="fill:#AFAFAF;" d="M966.031,4303.199c-0.331,2.454-63.229-3.991-140.487-14.4
				c-77.258-10.404-139.622-20.829-139.292-23.281c0.331-2.457,63.23,3.989,140.488,14.396
				C903.998,4290.319,966.362,4300.744,966.031,4303.199z"/>
		</g>
	</g>
	<g>
		<g>
			<g>
				<g>
					<g>
						<path style="fill:#F1F0F5;" d="M2372.336,3901c-0.816-15.19-9.229-34.546-16.831-43.424
							c-7.609-8.869-21.798-17.296-31.679-18.811c-9.883-1.52-30.106-1.091-45.183,0.973l-53.5,7.288l-53.506-7.288
							c-15.078-2.063-35.301-2.492-45.19-0.973c-9.885,1.515-24.064,9.941-31.673,18.811c-7.602,8.878-16.01,28.233-16.828,43.424
							c-1.455,26.883,0.333,69.455,19.583,108.522c0,0,13.774,27.546,13.774,71.615c0,32.229,12.279,101.716,28.223,132.625
							c6.972,13.525,27.859,10.935,32.089-3.685c14.809-51.227,25.363-180.252,53.519-179.895
							c28.141-0.357,38.697,128.668,53.525,179.895c4.238,14.619,25.133,17.21,32.099,3.685
							c15.941-30.909,28.228-100.383,28.228-132.625c0-44.069,13.771-71.615,13.771-71.615
							C2372,3970.455,2373.788,3927.883,2372.336,3901z"/>
					</g>
				</g>
			</g>
		</g>
		<g>
			<g>
				<g>
					<g>
						<path style="fill:#F1F0F5;" d="M2667.497,3901c0.817-15.19,9.229-34.546,16.831-43.424
							c7.607-8.869,21.797-17.296,31.677-18.811c9.885-1.52,30.107-1.091,45.185,0.973l53.501,7.288l53.506-7.288
							c15.077-2.063,35.3-2.492,45.191-0.973c9.884,1.515,24.063,9.941,31.672,18.811c7.603,8.878,16.011,28.233,16.829,43.424
							c1.454,26.883-0.336,69.455-19.583,108.522c0,0-13.773,27.546-13.773,71.615c0,32.229-12.28,101.716-28.224,132.625
							c-6.972,13.525-27.861,10.935-32.092-3.685c-14.807-51.227-25.363-180.252-53.517-179.895
							c-28.14-0.357-38.699,128.668-53.523,179.895c-4.239,14.619-25.136,17.21-32.102,3.685
							c-15.941-30.909-28.226-100.383-28.226-132.625c0-44.069-13.772-71.615-13.772-71.615
							C2667.835,3970.455,2666.045,3927.883,2667.497,3901z"/>
					</g>
				</g>
			</g>
		</g>
		<g>
			<path style="fill:#F1F0F5;" d="M2647.838,4009.08c19.047-38.949,20.823-81.3,19.374-108.08
				c-0.819-15.19-9.228-34.546-16.829-43.424c-7.611-8.869-21.788-17.296-31.673-18.811c-9.89-1.52-30.113-1.091-45.192,0.973
				l-53.505,7.288l-53.501-7.288c-15.076-2.063-35.3-2.492-45.186-0.973c-9.878,1.515-24.067,9.941-31.675,18.811
				c-7.604,8.878-16.014,28.233-16.83,43.424c-1.401,25.896,0.216,66.35,17.538,104.21
				C2420.34,4015.801,2523.567,4045.784,2647.838,4009.08z"/>
		</g>
	</g>
	<path style="fill:#DD6883;" d="M392.562,644.164c0,0-27.311,108.365-21.144,176.202c6.167,67.837-1.762,91.624,29.073,119.816
		c30.835,28.193,18.501,76.648,56.384,96.912c37.884,20.263,81.053-17.621,110.126-29.955c29.073-12.334,7.929,19.382,63.433,37.002
		s77.528,19.382,104.84-9.69c27.312-29.073,48.457-41.407,52.861-99.554c4.405-58.146-7.048-131.27-8.81-186.774
		c-1.762-55.503-7.929-95.148-44.932-102.197C697.391,638.878,392.562,644.164,392.562,644.164z"/>
	<g>
		<g>
			<g>
				<path style="fill:#F1F0F5;" d="M753.018,550.987c-1.031-19.169-11.645-43.598-21.24-54.801
					c-9.602-11.193-27.509-21.826-39.977-23.74c-12.475-1.915-37.997-1.374-57.023,1.229l-67.52,9.197l-67.523-9.197
					c-19.028-2.603-44.549-3.145-57.031-1.229c-12.475,1.914-30.368,12.547-39.97,23.74c-9.594,11.204-20.206,35.632-21.239,54.801
					c-1.835,33.924,0.423,87.651,24.716,136.957c0,0,17.382,34.763,17.382,90.378c0,40.671,15.497,128.366,35.616,167.373
					c8.8,17.069,35.161,13.799,40.5-4.65c18.686-64.648,32.007-227.479,67.54-227.029c35.512-0.45,48.837,162.38,67.547,227.029
					c5.349,18.449,31.719,21.719,40.51,4.65c20.117-39.007,35.621-126.684,35.621-167.373c0-55.615,17.382-90.378,17.382-90.378
					C752.592,638.638,754.851,584.911,753.018,550.987z"/>
			</g>
		</g>
	</g>
	<path style="fill:#DD6883;" d="M865.371,650.555c0,0-27.311,108.365-21.144,176.203c6.167,67.836-1.762,91.623,29.073,119.816
		c30.834,28.193,18.5,76.648,56.384,96.911c37.883,20.264,81.053-17.621,110.126-29.955c29.073-12.333,7.929,19.382,63.433,37.002
		s77.528,19.382,104.84-9.691c27.312-29.073,48.456-41.407,52.86-99.554c4.405-58.147-7.047-131.271-8.81-186.774
		c-1.763-55.504-7.93-95.148-44.932-102.196C1170.2,645.269,865.371,650.555,865.371,650.555z"/>
	<g>
		<g>
			<g>
				<path style="fill:#F1F0F5;" d="M863.482,550.987c1.031-19.169,11.645-43.598,21.24-54.801
					c9.602-11.193,27.51-21.826,39.977-23.74c12.475-1.915,37.997-1.374,57.023,1.229l67.52,9.197l67.523-9.197
					c19.029-2.603,44.549-3.145,57.031-1.229c12.475,1.914,30.369,12.547,39.97,23.74c9.595,11.204,20.206,35.632,21.239,54.801
					c1.835,33.924-0.423,87.651-24.715,136.957c0,0-17.383,34.763-17.383,90.378c0,40.671-15.497,128.366-35.616,167.373
					c-8.8,17.069-35.16,13.799-40.5-4.65c-18.685-64.648-32.007-227.479-67.539-227.029c-35.513-0.45-48.838,162.38-67.548,227.029
					c-5.349,18.449-31.719,21.719-40.51,4.65c-20.117-39.007-35.621-126.684-35.621-167.373c0-55.615-17.382-90.378-17.382-90.378
					C863.908,638.638,861.649,584.911,863.482,550.987z"/>
			</g>
		</g>
	</g>
	<g>
		
			<ellipse transform="matrix(0.7071 -0.7071 0.7071 0.7071 -1655.5779 4161.1567)" style="fill:#42B7B4;" cx="4195.171" cy="4079.038" rx="669.406" ry="669.407"/>
		<g>
			<path style="fill:#F899AD;" d="M4576.4,4261.955c-14.398-76.761-76.373-325.955-166.874-325.955h-433.755
				c-90.502,0-148.73,237.901-162.276,325.955c-13.548,88.052,33.487,163.045,123.99,163.045h520.255
				C4548.24,4425,4590.795,4338.714,4576.4,4261.955z"/>
			<g>
				<g>
					<g>
						<path style="fill:#F1F0F5;" d="M4406.881,3823.299c-1.175-21.85-13.273-49.693-24.208-62.46
							c-10.945-12.757-31.354-24.876-45.563-27.058c-14.218-2.184-43.306-1.566-64.991,1.4l-76.954,10.482l-76.959-10.482
							c-21.688-2.967-50.775-3.584-65.003-1.4c-14.215,2.182-34.61,14.301-45.556,27.058c-10.933,12.767-23.027,40.61-24.205,62.46
							c-2.09,38.663,0.481,99.898,28.17,156.096c0,0,19.812,39.62,19.812,103.006c0,46.354,17.663,146.305,40.594,190.762
							c10.027,19.454,40.072,15.727,46.159-5.301c21.299-73.682,36.48-259.266,76.977-258.753
							c40.475-0.513,55.662,185.071,76.986,258.753c6.096,21.027,36.152,24.755,46.172,5.301
							c22.929-44.457,40.598-144.387,40.598-190.762c0-63.386,19.811-103.006,19.811-103.006
							C4406.396,3923.197,4408.97,3861.962,4406.881,3823.299z"/>
					</g>
				</g>
			</g>
			<g>
				<rect x="4076" y="3786" style="fill:#AEAEAF;" width="239" height="159"/>
				<path style="fill:#AEAEAF;" d="M4313.763,3943.693c0,21.842-53.113,39.545-118.635,39.545
					c-65.522,0-118.636-17.703-118.636-39.545c0-21.839,53.113-39.544,118.636-39.544
					C4260.649,3904.149,4313.763,3921.854,4313.763,3943.693z"/>
				<path style="fill:#CCCDCE;" d="M4313.763,3785.516c0,21.839-53.113,39.544-118.635,39.544
					c-65.522,0-118.636-17.705-118.636-39.544c0-21.84,53.113-39.545,118.636-39.545
					C4260.649,3745.971,4313.763,3763.676,4313.763,3785.516z"/>
			</g>
		</g>
	</g>
</g>
</svg>
